<svg width="512" height="512" version="1.1" viewBox="0 0 512 512"
  xmlns="http://www.w3.org/2000/svg">
  <defs>
    <filter id="b" color-interpolation-filters="sRGB">
      <feFlood flood-color="rgb(0,0,0)" flood-opacity=".49804" result="flood" />
      <feComposite in="flood" in2="SourceGraphic" operator="in" result="composite1" />
      <feGaussianBlur in="composite1" result="blur" stdDeviation="3" />
      <feOffset dx="6" dy="6" result="offset" />
      <feComposite in="SourceGraphic" in2="offset" result="composite2" />
    </filter>
  </defs>
  <style>
    .f {
      fill: #1e293b
    }

    .t {
      fill: #e2e8f0
    }

    @media(prefers-color-scheme:dark) {
      .f {
        fill: #e2e8f0
      }

      .t {
        fill: #1e293b
      }
    }
  </style>
  <circle class="f" cx="256" cy="256" r="256" fill-opacity=".7" fill-rule="evenodd" />
  <g filter="url(#b)">
    <path class="t"
      d="m44.001 147.06h42.467q41.12 0 55.544 3.7682 14.56 3.7683 22.11 12.381t9.4371 19.246q1.8875 10.498 1.8875 41.45v76.307q0 29.339-2.8312 39.298-2.6963 9.8245-9.572 15.477-6.8756 5.5178-16.987 7.8056-10.111 2.1534-30.469 2.1534h-71.587zm56.758 37.279v143.32q12.268 0 15.099-4.8449 2.831-4.9794 2.831-26.781v-84.651q0-14.804-0.94371-18.976-0.94371-4.1724-4.3142-6.0561-3.3704-2.0187-12.673-2.0187z" />
    <path class="t"
      d="m331.42 147.06-28.851 217.89h-86.149l-32.76-217.89h59.859q10.381 90.034 14.83 152.21 4.449-62.848 9.3024-111.7l3.9096-40.508z" />
    <path class="t"
      d="m435.51 147.06 32.491 217.89h-58.106l-2.8312-39.163h-20.358l-3.3704 39.163h-58.78l28.851-217.89zm-30.064 140.1q-4.3142-37.009-8.6282-91.38-8.6282 62.445-10.785 91.38z" />
  </g>
</svg>