<svg width="32" height="32" xmlns="http://www.w3.org/2000/svg" viewBox="0 0 24 24">
  <g clip-rule="evenodd" fill-rule="evenodd">
    <path
      d="m12 2c-5.5228 0-10 4.4772-10 10 0 5.5229 4.4772 10 10 10 5.5229 0 10-4.4771 10-10 0-5.5228-4.4771-10-10-10zm-12 10c0-6.6274 5.3726-12 12-12s12 5.3726 12 12-5.3726 12-12 12-12-5.3726-12-12z" />
    <path
      d="m9.5916 22.736c-0.0967-0.1248-0.0967-1.2371 0-3.3367-1.0359 0.0357-1.6904-0.0362-1.9635-0.2157-0.4096-0.2694-0.8197-1.1-1.1836-1.6854s-1.1714-0.678-1.4976-0.8088c-0.32611-0.1309-0.40797-0.6644 0.8986-0.2609 1.3066 0.4034 1.3703 1.5021 1.7825 1.759s1.3976 0.1445 1.8443-0.0613c0.44665-0.2058 0.4138-0.9721 0.49345-1.2756 0.10073-0.2834-0.25425-0.3462-0.26205-0.3485-0.43605 0-2.7268-0.4982-3.3561-2.7166-0.6292-2.2183 0.18135-3.6682 0.61375-4.2915 0.28825-0.41555 0.26275-1.3012-0.0765-2.6569 1.2318-0.1574 2.1824 0.2303 2.8518 1.1632 6.5e-4 0.00535 0.87758-0.52145 2.2634-0.52145 1.3859 0 1.8776 0.4291 2.257 0.52145s0.6829-1.633 3.0263-1.1632c-0.4892 0.9616-0.899 2.1632-0.5862 2.6569 0.3127 0.4937 1.54 2.0636 0.7861 4.2915-0.5026 1.4854-1.4906 2.3909-2.9641 2.7166-0.169 0.0539-0.2534 0.1409-0.2534 0.2609 0 0.18 0.2284 0.1997 0.5575 1.0431 0.2193 0.5622 0.2352 2.1681 0.0475 4.8176-0.4755 0.1211-0.8454 0.2023-1.1097 0.2439-0.4687 0.0736-0.9776 0.1149-1.4777 0.1309-0.5 0.0159-0.6736 0.0141-1.3649-0.0502-0.4608-0.0429-0.9031-0.1137-1.3269-0.2123z" />
  </g>
</svg>