<svg xmlns="http://www.w3.org/2000/svg" fill="#737373" viewBox="0 0 24 24"><path d="m8.6097 0.081851c-0.48639 0.16034-0.82217 0.46122-1.075 0.9476l-0.13138 0.26079-0.014465 1.2935c-0.019445 1.5242 0.0047429 1.6594 0.37444 2.0404 0.62749 0.64673 1.6441 0.48641 2.0624-0.32581 0.087506-0.17061 0.10695-0.30088 0.12165-0.91756l0.019445-0.712h-0.82715l-0.019446 0.59663c-0.0097228 0.49642-0.029168 0.61179-0.10695 0.69684-0.11667 0.1403-0.34053 0.18552-0.52052 0.11023-0.26275-0.11537-0.28694-0.23562-0.28694-1.3888 0-1.1632 0.034148-1.3236 0.33555-1.5843 0.23832-0.20556 0.45246-0.24564 1.1527-0.23073 0.71497 0.020042 0.8902 0.095326 1.0994 0.43629l0.11193 0.18552v2.4569c0 2.6422-5e-3 2.6771-0.25777 3.0281-0.19469 0.27082-0.48639 0.37592-1.0361 0.37592-0.42329 0.0051326-0.49133-0.010021-0.75386-0.14543-0.24331-0.13027-0.30639-0.1904-0.42305-0.43116-0.11667-0.23562-0.14584-0.36101-0.16552-0.79218l-0.029168-0.50643-0.27247-0.12539c-0.15082-0.075284-0.34528-0.20067-0.43302-0.29086l-0.16552-0.16034 0.024425 0.8523c0.014703 0.712 0.034148 0.90241 0.1264 1.1532 0.20916 0.59663 0.61299 0.99261 1.221 1.2082 0.36472 0.13028 1.3133 0.13541 1.7074 0.010022 0.57387-0.18552 1.0119-0.65188 1.1966-1.2634 0.07778-0.28084 0.08751-0.52136 0.08751-2.9379v-2.6322l-0.13612-0.28084c-0.15556-0.33584-0.53022-0.712-0.85131-0.86231-0.20442-0.10021-0.32108-0.11023-1.0799-0.12026-0.60778-0.0097768-0.90942 0.0051326-1.0553 0.055485z"/><path d="m4.9809 2.3378c-0.34053 0.12539-0.63719 0.42114-0.81718 0.80734l-0.1411 0.30088v19.453l0.11667 0.25053c0.063316 0.14543 0.21414 0.34586 0.34053 0.46122 0.42804 0.39107 0.048612 0.3659 5.944 0.3659 5.6961 0 5.5162 0.01002 5.7981-0.26568 0.06806-0.06013 0.88526-0.97254 1.829-2.0304 1.1091-1.2534 1.7463-2.0055 1.8144-2.1558l0.11193-0.23562v-15.843l-0.13612-0.30088c-0.1411-0.30577-0.41357-0.6015-0.70051-0.7621-0.15082-0.0853-0.38416-0.090189-3.3806-0.10535l-3.2251-0.015154v0.70685h3.0062c1.8874 0 3.0693 0.020043 3.1812 0.050105 0.21888 0.065258 0.4572 0.33095 0.52528 0.59663 0.03415 0.13028 0.04387 2.6121 0.03889 7.7558l-0.0147 7.5654-1.4349 0.02518c-1.5905 0.03006-1.6197 0.0352-1.9896 0.37592-0.10695 0.10021-0.24805 0.26568-0.30638 0.3659-0.10695 0.18038-0.11193 0.2256-0.13612 1.8649l-0.02443 1.6797h-5.0924c-5.0638 0-5.0928 0-5.2243-0.10535-0.073038-0.05524-0.17999-0.16547-0.23358-0.24075l-0.1022-0.13542-0.014465-9.4807c-0.0049799-6.5127 0.004743-9.5359 0.038891-9.6711 0.068057-0.26568 0.30639-0.53137 0.52528-0.59663 0.097229-0.025175 0.43776-0.050105 0.75386-0.050105h0.56911v-0.70199h-0.71497c-0.47166 0.00562-0.78305 0.025909-0.90471 0.070882z"/><path d="m6.2117 10.089v0.35099h11.577v-0.70199h-11.577z"/><path d="m6.2164 12.014c-0.034148 0.04522-0.053593 0.19554-0.043871 0.39107l0.014465 0.31579h11.626v-0.75209l-5.7691-0.01515c-4.9324-0.0098-5.7786 2.33e-4 -5.8271 0.06037z"/><path d="m6.2117 14.601v0.35099h11.577v-0.70199h-11.577z"/><path d="m6.2117 16.857v0.35099h11.577v-0.70199h-11.577z"/><path d="m6.2117 19.114v0.35099h6.5179v-0.70199h-6.5179z"/></svg>
