<svg xmlns="http://www.w3.org/2000/svg" enable-background="new 0 0 512 512" fill="#be123c" opacity=".5" viewBox="0 0 24 24"><path d="m12 0q3.3208 0 6.0377 1.5849 2.7924 1.5849 4.3774 4.3774 1.5849 2.7925 1.5849 6.0377t-1.5849 6.0377q-1.5849 2.7924-4.3774 4.3774-2.7925 1.5849-6.0377 1.5849t-6.0377-1.5849q-2.7924-1.5849-4.3774-4.3774-1.5849-2.7925-1.5849-6.0377t1.5849-6.0377q1.5849-2.7924 4.3774-4.3774 2.7925-1.5849 6.0377-1.5849zm2.0377 19.698v-3.0189q0-0.22642-0.15095-0.37736-0.15094-0.15095-0.37736-0.15095h-3.0189q-0.22642 0-0.37736 0.15095-0.15095 0.15094-0.15095 0.37736v3.0189q0 0.22642 0.15095 0.37736 0.15094 0.15095 0.37736 0.15095h3.0189q0.22642 0 0.37736-0.15095 0.15095-0.15094 0.15095-0.37736zm-0.0302-5.434 0.30188-9.8113q0-0.22641-0.15094-0.30189-0.15093-0.15094-0.37735-0.15094h-3.4717q-0.22641 0-0.37735 0.15094-0.15095 0.0755-0.15095 0.30189l0.30189 9.8113q0 0.15094 0.15094 0.30189 0.15095 0.15094 0.37736 0.15094h2.9434q0.22641 0 0.37736-0.15094 0.15094-0.15095 0.15094-0.30189z" stroke-width=".075472"/></svg>
