<svg xmlns="http://www.w3.org/2000/svg" viewBox="0 0 24 24"><path d="m8.1 7.8594q0 1.0156-0.675 1.7188-0.675 0.70313-1.65 0.70313t-1.65-0.70313q-0.675-0.70312-0.675-1.7188 0-1.0156 0.675-1.7188 0.675-0.70312 1.65-0.70312t1.65 0.70312q0.675 0.70313 0.675 1.7188zm12.75 5v5.7812h-17.55v-2.5l3.975-4.1406 1.95 2.0312 6.375-6.6406zm1.2-9.1406h-19.95q-0.15 0-0.3 0.0781-0.075 0.0781-0.075 0.3125v15.781q0 0.15625 0.075 0.3125 0.075 0.0781 0.3 0.0781h19.95q0.15 0 0.3-0.0781 0.075-0.0781 0.075-0.3125v-15.781q0-0.15625-0.075-0.3125-0.075-0.0781-0.3-0.0781zm1.95 0.39062v15.781q0 0.85938-0.6 1.4844t-1.425 0.625h-19.95q-0.825 0-1.425-0.625t-0.6-1.4844v-15.781q0-0.85937 0.6-1.4844t1.425-0.625h19.95q0.825 0 1.425 0.625t0.6 1.4844z" fill="#737373"/></svg>
