<svg xmlns="http://www.w3.org/2000/svg" viewBox="0 0 24 24"><path d="m24 5.0643v13.674q0 0.49341-0.52665 0.77534-0.15047 0.06338-0.30094 0.06338-0.37617 0-0.60188-0.21146l-5.4169-5.0749v2.1145q0 1.4802-1.1285 2.5374-1.1285 1.0573-2.7085 1.0573h-9.4796q-1.5799 0-2.7085-1.0573-1.1285-1.0572-1.1285-2.5374v-8.8106q0-1.4802 1.1285-2.5374 1.1285-1.0573 2.7085-1.0573h9.4796q1.5799 0 2.7085 1.0573 1.1285 1.0573 1.1285 2.5374v2.0441l5.4169-5.0749q0.22571-0.21145 0.60188-0.21145 0.15047 0 0.30094 0.063378 0.52665 0.2115 0.52665 0.77539z" fill="#737373"/></svg>
