<svg xmlns="http://www.w3.org/2000/svg" version="1.1" width="32" height="32" viewBox="0 0 24 24" fill="#737373"><path d="m12 1a11 11 0 1 0 11 11 11 11 0 0 0-11-11zm0 19a8 8 0 1 1 8-8 8 8 0 0 1-8 8z" opacity=".25"/><path d="m10.14 1.16a11 11 0 0 0-9 8.92 1.59 1.59 0 0 0 1.32 1.92 1.52 1.52 0 0 0 1.65-1.3 8 8 0 0 1 6.66-6.61 1.42 1.42 0 0 0 1.23-1.4 1.57 1.57 0 0 0-1.86-1.53z"><animateTransform attributeName="transform" dur="0.75s" repeatCount="indefinite" type="rotate" values="0 12 12;360 12 12"/></path></svg>